<?xml version="1.0" standalone="no"?>
<!DOCTYPE svg PUBLIC "-//W3C//DTD SVG 20010904//EN"
 "http://www.w3.org/TR/2001/REC-SVG-20010904/DTD/svg10.dtd">
<svg version="1.0" xmlns="http://www.w3.org/2000/svg"
 width="825.000000pt" height="544.000000pt" viewBox="0 0 825.000000 544.000000"
 preserveAspectRatio="xMidYMid meet">
<metadata>
Created by potrace 1.16, written by Peter Selinger 2001-2019
</metadata>
<g transform="translate(0.000000,544.000000) scale(0.100000,-0.100000)"
fill="#000000" stroke="none">
<path d="M4065 4356 c-16 -7 -47 -31 -67 -54 -77 -85 -58 -226 39 -287 18 -11
32 -26 33 -32 0 -9 22 -13 75 -13 60 0 75 3 75 15 0 8 4 15 10 15 5 0 26 15
46 32 132 117 50 339 -125 338 -31 -1 -69 -7 -86 -14z m142 -17 c64 -24 113
-95 113 -164 0 -45 -31 -106 -67 -135 l-28 -22 -3 26 c-3 25 -5 26 -78 26 -72
0 -74 -1 -74 -25 0 -25 -1 -25 -25 -9 -54 35 -83 116 -65 183 27 101 131 156
227 120z"/>
<path d="M4050 4145 l0 -65 95 0 95 0 0 65 0 65 -95 0 -95 0 0 -65z"/>
<path d="M4008 3950 c-200 -32 -374 -125 -516 -275 -91 -96 -149 -194 -193
-325 -26 -78 -33 -116 -37 -212 -10 -247 55 -445 207 -624 103 -122 230 -206
402 -266 91 -31 99 -32 259 -32 160 0 168 1 260 32 163 57 289 137 390 249
164 184 246 432 219 669 -49 441 -397 770 -834 789 -55 2 -126 0 -157 -5z
m229 -71 c323 -44 590 -280 674 -597 30 -109 30 -298 1 -403 -62 -230 -234
-433 -448 -530 -200 -91 -460 -92 -659 -4 -236 105 -420 336 -465 583 -17 95
-15 257 5 337 9 39 39 117 67 174 44 93 61 115 147 201 133 135 265 205 441
235 96 17 141 17 237 4z"/>
<path d="M4025 3854 c-424 -69 -720 -451 -666 -860 25 -187 95 -330 225 -459
133 -132 275 -202 459 -225 314 -39 637 135 780 421 66 133 82 198 81 349 0
98 -5 142 -22 203 -76 266 -271 465 -537 546 -70 22 -252 36 -320 25z m303
-45 c255 -68 464 -278 533 -536 28 -103 30 -280 5 -372 -53 -197 -183 -369
-354 -470 -268 -159 -618 -130 -864 73 -328 271 -361 778 -70 1087 196 209
478 291 750 218z"/>
<path d="M4081 3728 c-60 -13 -123 -77 -140 -142 -32 -127 82 -260 209 -243
127 17 204 131 170 252 -28 99 -129 156 -239 133z m116 -29 c64 -24 105 -87
105 -159 0 -110 -101 -194 -206 -170 -152 34 -185 241 -51 317 44 25 106 30
152 12z"/>
<path d="M4411 3235 c-192 -129 -217 -143 -247 -138 -18 3 -44 3 -58 -1 -29
-7 -60 -59 -53 -88 7 -26 -217 -208 -256 -208 -16 0 -30 -8 -37 -19 -13 -25
-13 -27 6 -45 25 -25 53 -20 67 14 9 20 49 55 130 110 113 77 118 80 161 74
41 -6 48 -4 75 24 21 20 31 40 31 61 0 27 19 45 188 182 190 154 220 180 212
178 -3 0 -101 -65 -219 -144z"/>
<path d="M4822 3897 l-42 -43 70 -69 70 -70 42 43 43 42 -70 70 -71 70 -42
-43z"/>
<path d="M2792 1947 c-31 -12 -37 -22 -106 -197 -40 -101 -78 -186 -85 -188
-27 -9 -7 -22 35 -22 39 0 45 3 40 17 -4 9 3 43 15 75 l21 58 84 0 83 0 21
-56 c11 -31 18 -65 15 -75 -6 -17 -1 -19 49 -19 52 0 73 11 42 23 -7 3 -46 93
-86 201 -40 108 -78 196 -84 195 -6 0 -26 -6 -44 -12z m47 -138 c17 -47 31
-88 31 -92 0 -4 -34 -7 -75 -7 -41 0 -75 2 -75 5 0 20 75 194 80 188 4 -4 22
-47 39 -94z"/>
<path d="M3594 1936 c-77 -36 -124 -110 -124 -196 0 -54 44 -133 91 -166 56
-38 146 -45 213 -16 44 20 46 23 46 61 0 30 -4 41 -15 41 -8 0 -15 -9 -15 -19
0 -50 -95 -84 -154 -56 -56 27 -81 76 -81 160 0 77 19 122 66 157 53 40 136
17 167 -45 20 -40 34 -33 30 16 -3 39 -6 44 -48 65 -57 28 -112 28 -176 -2z"/>
<path d="M5744 1946 c-41 -18 -64 -52 -64 -96 0 -50 20 -73 97 -109 78 -37 93
-53 93 -95 0 -39 -9 -52 -41 -64 -39 -15 -78 -3 -107 34 -34 43 -42 43 -42 -1
0 -43 31 -66 99 -73 98 -9 161 35 161 113 0 58 -24 84 -120 134 -76 40 -80 44
-80 76 0 40 20 55 72 55 36 0 78 -30 78 -55 0 -8 7 -15 15 -15 11 0 15 11 15
35 0 33 -4 38 -42 55 -50 23 -91 24 -134 6z"/>
<path d="M1962 1933 c8 -10 32 -79 52 -153 75 -271 63 -242 104 -238 l35 3 38
114 c21 63 40 116 42 118 3 2 19 -38 37 -89 49 -137 56 -148 90 -148 32 0 23
-23 95 240 24 87 45 141 57 153 20 16 18 17 -38 17 -42 0 -55 -3 -47 -11 8 -8
1 -47 -23 -142 -19 -73 -37 -141 -41 -152 -4 -14 -19 14 -52 100 -42 107 -49
120 -72 123 -25 3 -28 -3 -70 -118 -24 -67 -46 -115 -50 -108 -15 28 -79 282
-75 295 4 10 -8 13 -46 13 -48 0 -50 -1 -36 -17z"/>
<path d="M3080 1910 c0 -43 13 -52 30 -20 8 15 21 20 50 20 l40 0 0 -175 c0
-110 -4 -175 -10 -175 -5 0 -10 -4 -10 -10 0 -5 25 -10 55 -10 30 0 55 5 55
10 0 6 -4 10 -10 10 -6 0 -10 65 -10 175 l0 175 40 0 c29 0 43 -5 52 -20 19
-30 28 -24 28 20 l0 40 -155 0 -155 0 0 -40z"/>
<path d="M3923 1939 c15 -9 17 -29 17 -190 0 -150 -2 -181 -15 -185 -8 -4 -12
-10 -9 -15 7 -12 104 -11 104 1 0 6 -4 10 -10 10 -6 0 -10 35 -10 85 l0 85
105 0 105 0 0 -85 c0 -50 -4 -85 -10 -85 -5 0 -10 -4 -10 -10 0 -12 97 -13
104 -1 3 5 -1 11 -9 15 -13 4 -15 35 -15 185 0 161 2 181 18 190 13 8 3 10
-42 11 -47 0 -57 -3 -48 -12 7 -7 12 -43 12 -90 l0 -78 -105 0 -105 0 0 78 c0
47 5 83 12 90 9 9 -1 12 -47 12 -46 -1 -56 -3 -42 -11z"/>
<path d="M4385 1936 c11 -8 48 -92 90 -202 l70 -189 44 0 44 0 69 185 c41 109
77 192 90 203 20 17 19 17 -38 17 -36 0 -54 -4 -46 -9 11 -6 0 -43 -49 -170
-34 -89 -64 -159 -68 -156 -3 4 -31 74 -62 158 -41 108 -54 156 -47 165 8 9
-3 12 -53 12 -56 0 -61 -2 -44 -14z"/>
<path d="M4893 1939 c15 -9 17 -29 17 -190 0 -150 -2 -181 -15 -185 -40 -16 9
-24 136 -24 l139 0 0 40 c0 45 -8 49 -33 20 -14 -17 -29 -20 -92 -20 l-75 0 0
75 0 75 68 0 c40 0 73 -5 80 -12 9 -9 12 -2 12 32 0 34 -3 41 -12 32 -7 -7
-40 -12 -80 -12 l-68 0 0 70 0 70 79 0 c68 0 82 -3 94 -20 18 -25 27 -16 27
27 l0 33 -147 0 c-106 -1 -143 -4 -130 -11z"/>
<path d="M5273 1936 c15 -12 17 -33 17 -190 0 -147 -2 -178 -15 -182 -28 -11
-4 -24 45 -24 49 0 73 13 45 24 -11 4 -15 22 -15 71 0 64 0 65 28 65 23 0 36
-13 82 -77 56 -80 83 -96 128 -78 16 7 16 8 0 14 -9 3 -39 37 -66 76 l-49 69
31 21 c42 28 58 62 53 113 -9 84 -61 112 -204 112 -84 -1 -95 -3 -80 -14z
m166 -27 c37 -13 51 -35 51 -83 0 -54 -35 -89 -91 -90 l-44 -1 -3 84 c-4 104
9 117 87 90z"/>
<path d="M6043 1939 c15 -9 17 -29 17 -190 0 -150 -2 -181 -15 -185 -40 -16 9
-24 136 -24 l139 0 0 40 c0 45 -8 49 -33 20 -14 -17 -29 -20 -92 -20 l-75 0 0
75 0 75 68 0 c40 0 73 -5 80 -12 9 -9 12 -2 12 32 0 34 -3 41 -12 32 -7 -7
-40 -12 -80 -12 l-68 0 0 70 0 70 79 0 c68 0 82 -3 94 -20 18 -25 27 -16 27
27 l0 33 -147 0 c-106 -1 -143 -4 -130 -11z"/>
<path d="M2705 1195 l0 -85 38 0 c44 0 92 22 101 45 3 9 6 32 6 50 0 50 -31
75 -94 75 l-51 0 0 -85z"/>
<path d="M3717 1268 c-22 -18 -39 -66 -31 -92 11 -38 45 -66 80 -66 45 0 74
27 81 75 7 56 -24 95 -76 95 -20 0 -45 -6 -54 -12z"/>
<path d="M3870 1195 c0 -75 2 -85 18 -85 15 0 17 6 14 35 -6 46 16 46 46 0 12
-19 29 -35 38 -35 15 0 15 2 0 23 -27 37 -29 46 -12 62 39 40 7 85 -60 85
l-44 0 0 -85z"/>
<path d="M4145 1194 l0 -86 52 4 c80 7 114 52 91 120 -13 37 -35 48 -95 48
l-48 0 0 -86z"/>
<path d="M4391 1254 c-46 -59 -10 -144 62 -144 53 0 82 39 78 108 -3 61 -100
86 -140 36z"/>
</g>
</svg>
